<?xml version="1.0" ?>
<svg height="20" version="1.1" viewBox="0 0 20 20" width="20" xmlns="http://www.w3.org/2000/svg">
    <g id="layer1">
        <path d="M 3.5058594 2.9921875 A 0.50005 0.50005 0 0 0 3 3.5 L 3 16.5 A 0.50005 0.50005 0 1 0 4 16.5 L 4 3.5 A 0.50005 0.50005 0 0 0 3.5078125 2.9921875 A 0.50005 0.50005 0 0 1 3.5058594 2.9921875 z M 16.486328 3 C 16.394678 3.00255 16.305487 3.0302541 16.228516 3.0800781 L 6.2285156 9.5800781 C 5.9237906 9.7771022 5.9237906 10.222898 6.2285156 10.419922 L 16.228516 16.919922 C 16.561583 17.137398 17.002926 16.897782 17.001953 16.5 L 17.001953 3.5 C 17.002062 3.2176511 16.76854 2.99121 16.486328 3 z M 16.001953 4.421875 L 16.001953 15.578125 L 7.4199219 10 L 16.001953 4.421875 z " style="fill:#000; fill-opacity:1; stroke:none; stroke-width:0px;"/>
    </g>
</svg>



